<?xml version="1.0" encoding="UTF-8"?>
<svg version="1.1" xmlns="http://www.w3.org/2000/svg" width="840" height="462">
<path d="M0 0 C3.0502117 0.00096732 6.09785746 -0.04067824 9.14770508 -0.08496094 C37.07392829 -0.25590414 65.25561535 8.11759677 85.8293457 27.75097656 C93.72182762 36.06191112 105.0168457 48.60734058 105.0168457 60.50097656 C101.50209818 63.41746918 97.88646768 65.59810977 93.8684082 67.73925781 C88.7602582 70.56051951 84.06767259 73.85505966 79.3293457 77.25097656 C73.2490302 81.54712869 67.17119215 85.84129464 60.9543457 89.93847656 C59.87024414 90.6590625 58.78614258 91.37964844 57.66918945 92.12207031 C56.79391602 92.57710938 55.91864258 93.03214844 55.0168457 93.50097656 C51.59442123 92.36016841 51.13609772 91.61838757 49.1418457 88.75097656 C40.62940713 77.02550971 29.37829948 69.99500228 15.0168457 67.50097656 C2.97106584 66.60544842 -8.79676445 66.55815314 -19.9831543 71.50097656 C-20.8081543 71.85160156 -21.6331543 72.20222656 -22.4831543 72.56347656 C-29.73066314 76.08929167 -35.73371997 82.03532924 -39.0456543 89.43847656 C-40.70576851 94.93214398 -40.37007539 100.34514341 -38.0612793 105.59863281 C-29.94768642 118.19473533 -11.18527907 124.79245358 2.19262695 129.84472656 C8.81342445 132.37208914 15.22689582 135.24444301 21.6418457 138.25097656 C22.75760986 138.77030762 23.87337402 139.28963867 25.02294922 139.82470703 C28.35656416 141.37856519 31.68701337 142.93903192 35.0168457 144.50097656 C36.00378418 144.96213867 36.99072266 145.42330078 38.00756836 145.8984375 C40.65818554 147.13738802 43.30683845 148.38039634 45.9543457 149.62597656 C46.73438965 149.99174805 47.51443359 150.35751953 48.31811523 150.734375 C51.36585454 152.17742557 54.20595251 153.62704776 57.0168457 155.50097656 C59.9895939 155.69269474 62.86805452 155.76446055 65.84108162 155.74592972 C66.75863369 155.7481282 67.67618577 155.75032668 68.62154245 155.75259179 C71.72490909 155.75758217 74.8280721 155.7482235 77.931427 155.73907471 C80.16736897 155.73978046 82.40331082 155.74137926 84.63925159 155.74379897 C90.80617815 155.74797491 96.97303707 155.73975801 103.13995457 155.72969651 C109.10079048 155.72196159 115.06162107 155.72362176 121.02246008 155.72530324 C132.47293063 155.72833942 143.92338601 155.72449546 155.37385333 155.71591606 C173.55303464 155.70236124 191.73217454 155.7073043 209.9113559 155.7182918 C216.90349873 155.72245293 223.89564188 155.72608258 230.88778496 155.72979355 C231.66466967 155.73021003 232.44155437 155.73062651 233.24198104 155.73105561 C251.74245593 155.7409162 270.24293103 155.74633917 288.7434082 155.74951172 C289.5530823 155.74965623 290.36275639 155.74980075 291.19696606 155.74994965 C310.08450025 155.75324222 328.97202611 155.75228312 347.85955811 155.74200439 C348.67165418 155.74156279 349.48375025 155.74112119 350.3204553 155.7406662 C356.86615097 155.73707123 363.41184656 155.73332546 369.95754213 155.72954074 C396.94258274 155.71405613 423.92755731 155.71865446 450.91258933 155.74640674 C454.72337147 155.75030387 458.53415381 155.75394244 462.34493637 155.75740814 C463.09494077 155.75809375 463.84494518 155.75877937 464.61767699 155.75948575 C476.69152019 155.76987442 488.76525105 155.75859727 500.83907864 155.73886411 C512.97412999 155.71940851 525.10902459 155.72130803 537.24406953 155.74516448 C543.81932613 155.75746831 550.39428273 155.75925657 556.96952248 155.73528481 C562.98768618 155.71353712 569.00516897 155.71931614 575.02330206 155.74708995 C577.20168963 155.75224778 579.38012969 155.74723351 581.55846347 155.7310802 C584.51898995 155.71059541 587.47712757 155.72705112 590.43756294 155.75265884 C591.28422185 155.73792941 592.13088076 155.72319998 593.003196 155.7080242 C599.65150129 155.82806271 603.95577529 158.27075523 609.0168457 162.50097656 C614.59021301 168.91731542 613.59562807 176.86371714 613.56616211 184.93212891 C613.57486451 186.5047553 613.58523353 188.07737322 613.59713745 189.64997864 C613.62385402 193.90839315 613.625082 198.16645196 613.62001085 202.42493391 C613.61786694 205.98594108 613.62764965 209.54687694 613.63722169 213.10786879 C613.65939038 221.51239679 613.66029928 229.91674599 613.64819336 238.32128906 C613.63611574 246.97782917 613.66073482 255.63371897 613.7033335 264.29014814 C613.7386163 271.73499633 613.75056026 279.179638 613.74405801 286.62456667 C613.74043976 291.06549753 613.74562878 295.50596452 613.77348709 299.94681931 C613.79871839 304.12503076 613.79468825 308.30223199 613.76866531 312.4804287 C613.76395043 314.00858724 613.76934374 315.53681771 613.78591156 317.06489372 C613.86382393 324.81312162 613.68234856 331.21143781 608.98676109 337.69320107 C602.73922152 343.42651785 597.53470683 344.08185813 589.34119892 344.00434113 C588.27206177 344.01015489 587.20292462 344.01596865 586.10138938 344.02195859 C582.50619273 344.03659725 578.91167463 344.02265439 575.31648254 344.00891113 C572.71781762 344.01351855 570.1191553 344.01987039 567.52049845 344.02782011 C561.8637211 344.04226841 556.20709644 344.04182775 550.55031204 344.03163147 C542.13785308 344.01650944 533.72552307 344.0242327 525.31306499 344.0364647 C510.28529756 344.05754149 495.25759811 344.05569575 480.2298242 344.04414905 C467.07069122 344.03408796 453.91158316 344.03145942 440.75244713 344.03623962 C439.87965964 344.03654516 439.00687214 344.0368507 438.10763654 344.0371655 C434.56458982 344.03841088 431.0215431 344.03968448 427.4784964 344.04100456 C394.22529637 344.05324634 360.9721396 344.0421401 327.71894625 344.02061697 C298.19948912 344.00165562 268.68010104 344.00331419 239.16064453 344.02246094 C205.98800255 344.0439053 172.81539887 344.0523565 139.64275092 344.04001188 C136.10211703 344.03872907 132.56148313 344.0374777 129.02084923 344.03623962 C128.14907209 344.03592331 127.27729495 344.03560701 126.37910032 344.03528111 C113.23982743 344.03073972 100.10058229 344.03603691 86.96131325 344.04615784 C72.00450367 344.05762141 57.04777267 344.05468027 42.09097282 344.03303486 C33.73006365 344.02133256 25.36932484 344.02046034 17.00842027 344.03561956 C10.74926002 344.0457113 4.49029821 344.03468049 -1.76883773 344.01572126 C-4.2891534 344.01127836 -6.80949206 344.01346892 -9.32979276 344.02322441 C-48.2322316 344.16217161 -83.2406013 332.81839937 -111.5456543 305.37597656 C-116.16642545 300.77715356 -120.1005727 295.91290406 -123.7331543 290.50097656 C-124.15153564 289.87819824 -124.56991699 289.25541992 -125.00097656 288.61376953 C-127.13399664 285.28631237 -128.53475434 282.4468962 -128.9831543 278.50097656 C-128.12077148 277.92992187 -127.25838867 277.35886719 -126.36987305 276.77050781 C-118.94883713 271.84483135 -111.57264949 266.85992669 -104.2331543 261.81347656 C-98.36633647 257.78134939 -92.46507973 253.84263134 -86.4284668 250.06738281 C-82.18521241 247.34925979 -78.08419577 244.4277502 -73.9831543 241.50097656 C-71.28779264 244.09132413 -69.03126614 246.71517207 -66.8581543 249.75097656 C-56.3172284 263.40932522 -38.9018624 271.98458643 -21.9831543 274.50097656 C-18.59115428 274.81006068 -15.20379251 275.05793723 -11.8034668 275.25488281 C-8.9831543 275.50097656 -8.9831543 275.50097656 -5.9831543 276.50097656 C-5.9831543 250.43097656 -5.9831543 224.36097656 -5.9831543 197.50097656 C-9.2831543 196.51097656 -12.5831543 195.52097656 -15.9831543 194.50097656 C-17.78042819 193.76221895 -19.56040161 192.97682886 -21.30249023 192.1159668 C-22.21754333 191.66797226 -23.13259644 191.21997772 -24.07537842 190.75840759 C-25.02978821 190.28029129 -25.984198 189.80217499 -26.9675293 189.30957031 C-27.98558655 188.80482681 -29.0036438 188.30008331 -30.05255127 187.78004456 C-32.19583312 186.71411684 -34.33706319 185.64405452 -36.47631836 184.57006836 C-39.70324578 182.95345997 -42.94020714 181.35841009 -46.1784668 179.76464844 C-57.48609924 174.14578441 -68.07262278 168.34622284 -77.9831543 160.50097656 C-78.7237207 159.93193604 -79.46428711 159.36289551 -80.22729492 158.77661133 C-96.35091081 146.1567812 -107.97193485 129.06977647 -110.9831543 108.50097656 C-112.68313107 80.74563165 -108.3833465 57.21476773 -89.57299805 35.90332031 C-82.24565457 27.82637648 -74.6629507 21.66499962 -64.9831543 16.50097656 C-64.36037598 16.16227539 -63.73759766 15.82357422 -63.09594727 15.47460938 C-53.74777881 10.42217462 -44.28902068 6.22662646 -33.9831543 3.50097656 C-33.07025635 3.24203613 -32.1573584 2.9830957 -31.21679688 2.71630859 C-20.84383186 0.09912973 -10.64814414 -0.02370205 0 0 Z " fill="#2DC9D8" transform="translate(176.983154296875,55.4990234375)"/>
<path d="M0 0 C63.01123596 0 63.01123596 0 76.89453125 12.73828125 C86.09067848 22.41527278 89.43994574 33.15525123 89.2109375 46.17578125 C88.61849533 56.91653834 83.98392072 66.67106356 76 73.9375 C72.83911429 76.51483758 69.74756418 78.40728522 66 80 C68.96793891 85.43646503 72.3320851 90.38952713 76 95.375 C77.15963223 96.96557887 78.31846709 98.55673933 79.4765625 100.1484375 C80.06211914 100.95249023 80.64767578 101.75654297 81.25097656 102.58496094 C85.46082607 108.39789105 89.57538289 114.27893781 93.70019531 120.15234375 C94.8976044 121.85444593 96.10087512 123.55242051 97.3046875 125.25 C97.94664062 126.1575 98.58859375 127.065 99.25 128 C99.79140625 128.763125 100.3328125 129.52625 100.890625 130.3125 C102 132 102 132 102 133 C74.9129033 136.89423446 74.9129033 136.89423446 66.15527344 131.12646484 C61.45341729 126.13864434 58.36714156 120.17122915 55.27084351 114.09765625 C51.60136934 106.96417062 47.09213154 100.42603472 42.58398438 93.8034668 C37.66945445 86.57151358 32.84378919 79.27952319 28 72 C27.67 92.13 27.34 112.26 27 133 C18.09 133 9.18 133 0 133 C0 89.11 0 45.22 0 0 Z " fill="#FDFEFE" transform="translate(304,244)"/>
<path d="M0 0 C8.91 0 17.82 0 27 0 C27.33 18.15 27.66 36.3 28 55 C36.16551881 42.380983 36.16551881 42.380983 44.3125 29.75 C45.25034438 28.36003042 46.18891159 26.97054757 47.12890625 25.58203125 C49.31694204 22.25440892 51.03891967 18.87264407 52.71484375 15.26171875 C58.52055941 3.67437753 58.52055941 3.67437753 64 0 C74.0877422 -2.53742407 84.79157477 -1.2967151 95 0 C92.08973051 5.37454963 89.06589356 10.56628279 85.625 15.625 C84.7501563 16.92110235 83.87654237 18.21803531 83.00390625 19.515625 C82.52840332 20.22267578 82.05290039 20.92972656 81.56298828 21.65820312 C77.87175234 27.18871471 74.25166281 32.76659843 70.63745117 38.34765625 C67.64870957 42.9604068 64.64028692 47.55071751 61.5234375 52.078125 C60.99935303 52.8510791 60.47526855 53.6240332 59.93530273 54.42041016 C58.96260533 55.85210658 57.97582752 57.27437363 56.97290039 58.68505859 C54.48563687 62.29478547 54.48563687 62.29478547 54.42578125 66.51953125 C56.47444061 69.74756771 58.54787743 72.93765018 60.75 76.0625 C61.23315674 76.75657959 61.71631348 77.45065918 62.21411133 78.16577148 C63.80437445 80.4474095 65.40185913 82.72387439 67 85 C68.09275014 86.56228865 69.18519417 88.12479145 70.27734375 89.6875 C72.58927341 92.9935026 74.90334441 96.2979935 77.21875 99.6015625 C81.38120131 105.54255591 85.53772154 111.48764739 89.6875 117.4375 C90.37094482 118.41468994 91.05438965 119.39187988 91.75854492 120.39868164 C92.39896729 121.31770264 93.03938965 122.23672363 93.69921875 123.18359375 C94.26471436 123.99368896 94.83020996 124.80378418 95.4128418 125.63842773 C97.03044602 128.04530139 98.52972946 130.50090079 100 133 C95.44726373 133.27382288 90.89939079 133.47230307 86.34033203 133.60424805 C84.79358419 133.65927006 83.24740097 133.73412755 81.70263672 133.82983398 C68.90870152 134.60209541 68.90870152 134.60209541 64.328125 130.75732422 C62.26605951 127.93215884 60.61100769 125.10103166 59 122 C58.14655232 120.73003937 57.2743738 119.47223595 56.375 118.234375 C55.58196804 117.07384845 54.79032771 115.91236985 54 114.75 C48.54156919 106.76472046 43.01688434 98.82628423 37.48242188 90.89355469 C36.82951172 89.95672852 36.17660156 89.01990234 35.50390625 88.0546875 C34.92455322 87.22437012 34.3452002 86.39405273 33.74829102 85.53857422 C31.80220861 82.7128006 29.90321455 79.85482182 28 77 C27.67 95.48 27.34 113.96 27 133 C18.09 133 9.18 133 0 133 C0 89.11 0 45.22 0 0 Z " fill="#FCFEFE" transform="translate(662,244)"/>
<path d="M0 0 C0.66 0 1.32 0 2 0 C10.65150227 18.34366096 19.27192296 36.70049183 27.80078125 55.1015625 C31.12839719 62.28053842 34.46772907 69.45400671 37.8125 76.625 C38.09665771 77.23456543 38.38081543 77.84413086 38.67358398 78.47216797 C42.19520622 86.02518641 45.73719931 93.56824617 49.30078125 101.1015625 C50.02826423 102.64110133 50.75572204 104.18065205 51.4831543 105.72021484 C52.87581902 108.66744634 54.27235901 111.61279751 55.67114258 114.55712891 C56.31475656 115.91822776 56.95823631 117.2793901 57.6015625 118.640625 C58.16182129 119.82172852 58.72208008 121.00283203 59.29931641 122.21972656 C61.33878335 126.75304642 63.15383288 131.38458221 65 136 C55.1 136 45.2 136 35 136 C33.845 133.40125 32.69 130.8025 31.5 128.125 C31.13455078 127.30789551 30.76910156 126.49079102 30.39257812 125.64892578 C30.10833984 125.0042334 29.82410156 124.35954102 29.53125 123.6953125 C29.23798828 123.03547363 28.94472656 122.37563477 28.64257812 121.69580078 C28 120 28 120 28 118 C10.18 118 -7.64 118 -26 118 C-26.66 119.98 -27.32 121.96 -28 124 C-29.98 127.96 -31.96 131.92 -34 136 C-43.57 136 -53.14 136 -63 136 C-60.63210665 130.08026663 -58.30320712 124.30112175 -55.56640625 118.5703125 C-55.25238358 117.9061734 -54.9383609 117.2420343 -54.61482239 116.55776978 C-53.94595779 115.14383004 -53.27580415 113.73049944 -52.60443115 112.31774902 C-50.80699589 108.53503804 -49.01953728 104.74761076 -47.23046875 100.9609375 C-46.86987366 100.19841675 -46.50927856 99.435896 -46.13775635 98.65026855 C-42.85185683 91.69808901 -39.60656871 84.72761603 -36.375 77.75 C-30.50739632 65.08756638 -24.61074996 52.43892595 -18.70507812 39.79421997 C-16.49261044 35.05653736 -14.28304541 30.31750606 -12.07421875 25.578125 C-11.11087074 23.51167926 -10.14747182 21.44525726 -9.18405151 19.37884521 C-8.5667779 18.05459194 -7.94968878 16.73025264 -7.33279419 15.40582275 C-6.47757215 13.56979421 -5.62161467 11.73410829 -4.765625 9.8984375 C-4.27868164 8.85349121 -3.79173828 7.80854492 -3.29003906 6.73193359 C-2.22262752 4.47146138 -1.13040534 2.2294476 0 0 Z " fill="#FCFEFE" transform="translate(472,241)"/>
<path d="M0 0 C3.43133611 2.55731654 6.74710881 5.21987174 10 8 C8.36935502 13.13501244 5.25818351 17.060455 2.0625 21.3125 C1.52431641 22.05306641 0.98613281 22.79363281 0.43164062 23.55664062 C-0.09107422 24.25595703 -0.61378906 24.95527344 -1.15234375 25.67578125 C-1.62663818 26.31427002 -2.10093262 26.95275879 -2.58959961 27.6105957 C-4 29 -4 29 -7 29 C-9.12890625 27.609375 -9.12890625 27.609375 -11.5625 25.75 C-20.05160054 19.61898294 -29.41367181 16.05510459 -40 17 C-52.08637379 18.96716153 -62.3977687 24.2164004 -70 34 C-76.54836416 44.97100661 -78.95243479 55.57252915 -76.31640625 68.30078125 C-72.84696191 79.63046048 -65.58942713 88.6875829 -55.22265625 94.578125 C-50.19101305 96.98006167 -45.61798912 98.69356423 -40 99 C-39.26523437 99.07347656 -38.53046875 99.14695312 -37.7734375 99.22265625 C-26.53918165 99.91811018 -17.79910325 94.34407468 -9.27734375 87.57421875 C-7 86 -7 86 -4 86 C-2.58959961 87.3894043 -2.58959961 87.3894043 -1.15234375 89.32421875 C-0.62962891 90.02353516 -0.10691406 90.72285156 0.43164062 91.44335938 C0.96982422 92.18392578 1.50800781 92.92449219 2.0625 93.6875 C2.60455078 94.40873047 3.14660156 95.12996094 3.70507812 95.87304688 C6.34578792 99.44730797 8.63939591 102.71536475 10 107 C-1.76963989 119.22231835 -17.2153803 126.77247965 -34.28076172 127.34692383 C-50.88792722 127.55702548 -65.93963084 122.28019157 -79 112 C-79.76054688 111.41605469 -80.52109375 110.83210938 -81.3046875 110.23046875 C-91.34246606 101.98142928 -97.70952022 91.14774396 -102 79 C-102.35191406 78.03964844 -102.70382812 77.07929688 -103.06640625 76.08984375 C-108.27837255 58.84019798 -105.23489857 40.78087868 -97.125 25.0625 C-94.17009509 20.02177986 -90.80432305 15.42992284 -87 11 C-86.50242187 10.40703125 -86.00484375 9.8140625 -85.4921875 9.203125 C-63.36097393 -15.04111901 -26.74891711 -17.49589291 0 0 Z " fill="#FCFEFE" transform="translate(637,253)"/>
<path d="M0 0 C30.69 0 61.38 0 93 0 C93 8.91 93 17.82 93 27 C82.11 27 71.22 27 60 27 C60 61.98 60 96.96 60 133 C51.09 133 42.18 133 33 133 C33 98.02 33 63.04 33 27 C22.11 27 11.22 27 0 27 C0 18.09 0 9.18 0 0 Z " fill="#FCFEFE" transform="translate(197,244)"/>
<path d="M0 0 C9.8625227 5.10177523 16.5534237 12.49337287 20.51171875 22.86328125 C23.42836126 32.76771312 22.27768508 43.13696378 17.54296875 52.2421875 C12.51341008 60.40124934 5.86577604 66.69088989 -3.23828125 69.8984375 C-12.72017031 71.0583016 -21.32814313 70.68455705 -29.23828125 64.8984375 C-37.52258241 58.32644268 -43.02661585 48.39953762 -44.23828125 37.8984375 C-45.15741661 28.85126196 -42.76520925 20.0255409 -37.48828125 12.5859375 C-27.85078316 0.93354686 -14.98761144 -5.09831897 0 0 Z " fill="#F9B63B" transform="translate(611.23828125,275.1015625)"/>
<path d="M0 0 C3.50625 -0.061875 7.0125 -0.12375 10.625 -0.1875 C11.71893066 -0.21481201 12.81286133 -0.24212402 13.93994141 -0.27026367 C20.20884195 -0.32374081 24.85252731 0.06186041 29.64453125 4.53515625 C34.01476504 10.25007736 34.7607585 13.85315606 34 21 C32.23943219 26.34206574 28.85440197 29.31458614 24 32 C21.05868109 32.98043964 19.17498335 33.11621202 16.11328125 33.09765625 C15.26805908 33.09515869 14.42283691 33.09266113 13.55200195 33.09008789 C12.48296631 33.08098389 11.41393066 33.07187988 10.3125 33.0625 C5.2078125 33.0315625 5.2078125 33.0315625 0 33 C0 22.11 0 11.22 0 0 Z " fill="#2EC9D9" transform="translate(331,271)"/>
<path d="M0 0 C0.66 0 1.32 0 2 0 C4.1386173 4.68031088 6.27479877 9.36172256 8.40869141 14.04418945 C9.13555468 15.63824777 9.86309262 17.23199863 10.59130859 18.82543945 C11.63554931 21.11069277 12.6773897 23.39702671 13.71875 25.68359375 C14.04685669 26.40026718 14.37496338 27.11694061 14.7130127 27.85533142 C17 32.88612829 17 32.88612829 17 34 C6.44 34 -4.12 34 -15 34 C-13.50770478 29.52311434 -11.94696582 25.53371127 -9.9609375 21.2890625 C-9.67521881 20.67606293 -9.38950012 20.06306335 -9.09512329 19.43148804 C-8.19146932 17.49454784 -7.28331831 15.55975656 -6.375 13.625 C-5.75751275 12.30352544 -5.14032233 10.98191214 -4.5234375 9.66015625 C-3.01905252 6.43849336 -1.51062991 3.21874023 0 0 Z " fill="#31C9D9" transform="translate(472,302)"/>
<path d="M0 0 C0.73476563 0.25652344 1.46953125 0.51304687 2.2265625 0.77734375 C2.46544716 3.63381403 2.57120951 5.25748179 0.96069336 7.68676758 C0.37682861 8.27997803 -0.20703613 8.87318848 -0.80859375 9.484375 C-1.45376953 10.15404297 -2.09894531 10.82371094 -2.76367188 11.51367188 C-3.44751953 12.19880859 -4.13136719 12.88394531 -4.8359375 13.58984375 C-6.16149177 14.94921982 -7.48571436 16.30989573 -8.80859375 17.671875 C-9.46230957 18.34041504 -10.11602539 19.00895508 -10.78955078 19.69775391 C-13.89923736 22.95745244 -16.84356459 26.3562073 -19.7734375 29.77734375 C-24.35175399 28.91493249 -26.88019921 26.22167372 -30.0859375 23.02734375 C-30.64861328 22.50140625 -31.21128906 21.97546875 -31.79101562 21.43359375 C-33.38671875 19.85546875 -33.38671875 19.85546875 -35.7734375 16.77734375 C-35.62890625 13.88671875 -35.62890625 13.88671875 -34.7734375 11.77734375 C-29.69008025 11.93138488 -27.41589032 14.79802807 -24.12890625 18.28125 C-23.68160156 18.77496094 -23.23429688 19.26867187 -22.7734375 19.77734375 C-19.6110659 18.4053821 -17.7798157 16.92083155 -15.5859375 14.27734375 C-14.98652344 13.57738281 -14.38710938 12.87742187 -13.76953125 12.15625 C-12.33335511 10.44464282 -10.91042327 8.72189067 -9.49609375 6.9921875 C-8.72136719 6.07566406 -7.94664062 5.15914063 -7.1484375 4.21484375 C-6.43429687 3.34730469 -5.72015625 2.47976563 -4.984375 1.5859375 C-2.7734375 -0.22265625 -2.7734375 -0.22265625 0 0 Z " fill="#35C8D2" transform="translate(616.7734375,294.22265625)"/>
<path d="M0 0 C0.66 0 1.32 0 2 0 C0.67879172 2.93230193 -0.74638197 4.98664899 -3.0390625 7.234375 C-3.90917969 8.09482422 -3.90917969 8.09482422 -4.796875 8.97265625 C-5.40015625 9.55917969 -6.0034375 10.14570313 -6.625 10.75 C-7.23601563 11.35199219 -7.84703125 11.95398438 -8.4765625 12.57421875 C-9.97988624 14.05405305 -11.48934856 15.52764676 -13 17 C-13.66 16.67 -14.32 16.34 -15 16 C-14.41992188 15.43152344 -13.83984375 14.86304688 -13.2421875 14.27734375 C-9.5299688 10.60800547 -5.8881861 6.96463354 -2.5625 2.9375 C-1.2940625 1.4834375 -1.2940625 1.4834375 0 0 Z " fill="#4FC5BE" transform="translate(614,294)"/>
</svg>
